# xmcd CD database file
#
# Track frame offsets:
#	183
#	32008
#	50758
#	76858
#	114230
#	142835
#	168278
#	178533
#	208158
#
# Disc length: 3284 seconds
#
# Revision: 0
# Processed by: cddbd v1.5.1PL0 Copyright (c) Steve Scherf et al.
# Submitted via: CDex 1.51
#
DISCID=6e0cd209
DTITLE=Oliver Lake Quintet  - Dedicated to Dolphy
DYEAR=1996
DGENRE=Jazz
TTITLE0=Fire Waltz
TTITLE1=Hat And Beard
TTITLE2=Feather
TTITLE3=245
TTITLE4=Miss Ann
TTITLE5=Something Sweet Something Tender
TTITLE6=Nov. 80
TTITLE7=Page 4
TTITLE8=G. W.
EXTD=YEAR: 1996
EXTT0=
EXTT1=
EXTT2=
EXTT3=
EXTT4=
EXTT5=
EXTT6=
EXTT7=
EXTT8=
PLAYORDER=
